<mxfile host="app.diagrams.net" modified="2023-05-29T20:03:56.754Z" agent="Mozilla/5.0 (Windows NT 10.0; Win64; x64) AppleWebKit/537.36 (KHTML, like Gecko) Chrome/113.0.0.0 Safari/537.36" etag="7lCprKx11HFU5EOnYLET" version="21.3.5" type="device">
  <diagram name="Page-1" id="BPFgBvU5uciSGNCUeT15">
    <mxGraphModel dx="2284" dy="792" grid="1" gridSize="10" guides="1" tooltips="1" connect="1" arrows="1" fold="1" page="1" pageScale="1" pageWidth="850" pageHeight="1100" math="0" shadow="0">
      <root>
        <mxCell id="0" />
        <mxCell id="1" parent="0" />
        <mxCell id="heOMLZ1UUDlmrcB64aW4-3" value="doctor" style="whiteSpace=wrap;html=1;align=center;" vertex="1" parent="1">
          <mxGeometry x="-100" y="220" width="100" height="40" as="geometry" />
        </mxCell>
        <mxCell id="heOMLZ1UUDlmrcB64aW4-4" value="fields" style="whiteSpace=wrap;html=1;align=center;" vertex="1" parent="1">
          <mxGeometry x="-185" y="460" width="100" height="40" as="geometry" />
        </mxCell>
        <mxCell id="heOMLZ1UUDlmrcB64aW4-6" value="users" style="whiteSpace=wrap;html=1;align=center;" vertex="1" parent="1">
          <mxGeometry x="576" y="515" width="100" height="40" as="geometry" />
        </mxCell>
        <mxCell id="heOMLZ1UUDlmrcB64aW4-7" value="room" style="whiteSpace=wrap;html=1;align=center;" vertex="1" parent="1">
          <mxGeometry x="35" y="530" width="100" height="40" as="geometry" />
        </mxCell>
        <mxCell id="heOMLZ1UUDlmrcB64aW4-8" value="&lt;span style=&quot;border-bottom: 1px dotted&quot;&gt;modified at&lt;/span&gt;" style="ellipse;whiteSpace=wrap;html=1;align=center;" vertex="1" parent="1">
          <mxGeometry x="-60" y="20" width="100" height="40" as="geometry" />
        </mxCell>
        <mxCell id="heOMLZ1UUDlmrcB64aW4-10" value="&lt;span style=&quot;border-bottom: 1px dotted&quot;&gt;day&lt;/span&gt;" style="ellipse;whiteSpace=wrap;html=1;align=center;strokeColor=default;" vertex="1" parent="1">
          <mxGeometry x="-10" y="90" width="100" height="40" as="geometry" />
        </mxCell>
        <mxCell id="heOMLZ1UUDlmrcB64aW4-11" value="&lt;span style=&quot;border-bottom: 1px dotted&quot;&gt;price&lt;/span&gt;" style="ellipse;whiteSpace=wrap;html=1;align=center;" vertex="1" parent="1">
          <mxGeometry x="-120" y="70" width="100" height="40" as="geometry" />
        </mxCell>
        <mxCell id="heOMLZ1UUDlmrcB64aW4-12" value="name" style="ellipse;whiteSpace=wrap;html=1;align=center;" vertex="1" parent="1">
          <mxGeometry x="-220" y="80" width="100" height="40" as="geometry" />
        </mxCell>
        <mxCell id="heOMLZ1UUDlmrcB64aW4-18" value="&lt;span style=&quot;border-bottom: 1px dotted&quot;&gt;time&lt;/span&gt;" style="ellipse;whiteSpace=wrap;html=1;align=center;" vertex="1" parent="1">
          <mxGeometry x="40" y="140" width="100" height="40" as="geometry" />
        </mxCell>
        <mxCell id="heOMLZ1UUDlmrcB64aW4-19" value="" style="endArrow=none;html=1;rounded=0;entryX=0.38;entryY=-0.125;entryDx=0;entryDy=0;entryPerimeter=0;" edge="1" parent="1" target="heOMLZ1UUDlmrcB64aW4-3">
          <mxGeometry relative="1" as="geometry">
            <mxPoint x="-70" y="110" as="sourcePoint" />
            <mxPoint x="90" y="110" as="targetPoint" />
          </mxGeometry>
        </mxCell>
        <mxCell id="heOMLZ1UUDlmrcB64aW4-20" value="" style="endArrow=none;html=1;rounded=0;entryX=0.25;entryY=0;entryDx=0;entryDy=0;" edge="1" parent="1" target="heOMLZ1UUDlmrcB64aW4-3">
          <mxGeometry relative="1" as="geometry">
            <mxPoint x="-160" y="119" as="sourcePoint" />
            <mxPoint y="119" as="targetPoint" />
          </mxGeometry>
        </mxCell>
        <mxCell id="heOMLZ1UUDlmrcB64aW4-21" value="" style="endArrow=none;html=1;rounded=0;entryX=0;entryY=0.25;entryDx=0;entryDy=0;" edge="1" parent="1" target="heOMLZ1UUDlmrcB64aW4-3">
          <mxGeometry relative="1" as="geometry">
            <mxPoint x="-170" y="190" as="sourcePoint" />
            <mxPoint x="-10" y="190" as="targetPoint" />
          </mxGeometry>
        </mxCell>
        <mxCell id="heOMLZ1UUDlmrcB64aW4-25" value="" style="endArrow=none;html=1;rounded=0;entryX=0.32;entryY=1.075;entryDx=0;entryDy=0;entryPerimeter=0;exitX=0.75;exitY=0;exitDx=0;exitDy=0;" edge="1" parent="1" source="heOMLZ1UUDlmrcB64aW4-3" target="heOMLZ1UUDlmrcB64aW4-10">
          <mxGeometry relative="1" as="geometry">
            <mxPoint x="100" y="370" as="sourcePoint" />
            <mxPoint x="260" y="370" as="targetPoint" />
          </mxGeometry>
        </mxCell>
        <mxCell id="heOMLZ1UUDlmrcB64aW4-26" value="" style="endArrow=none;html=1;rounded=0;entryX=0;entryY=1;entryDx=0;entryDy=0;exitX=0.94;exitY=0.05;exitDx=0;exitDy=0;exitPerimeter=0;" edge="1" parent="1" source="heOMLZ1UUDlmrcB64aW4-3" target="heOMLZ1UUDlmrcB64aW4-18">
          <mxGeometry relative="1" as="geometry">
            <mxPoint x="100" y="370" as="sourcePoint" />
            <mxPoint x="260" y="370" as="targetPoint" />
          </mxGeometry>
        </mxCell>
        <mxCell id="heOMLZ1UUDlmrcB64aW4-29" value="&lt;span style=&quot;border-bottom: 1px dotted&quot;&gt;created at&lt;/span&gt;" style="ellipse;whiteSpace=wrap;html=1;align=center;" vertex="1" parent="1">
          <mxGeometry x="570" y="140" width="100" height="40" as="geometry" />
        </mxCell>
        <mxCell id="heOMLZ1UUDlmrcB64aW4-30" value="&lt;span style=&quot;border-bottom: 1px dotted&quot;&gt;id&lt;/span&gt;" style="ellipse;whiteSpace=wrap;html=1;align=center;" vertex="1" parent="1">
          <mxGeometry x="500" y="190" width="100" height="40" as="geometry" />
        </mxCell>
        <mxCell id="heOMLZ1UUDlmrcB64aW4-33" value="" style="endArrow=none;html=1;rounded=0;entryX=0.85;entryY=0;entryDx=0;entryDy=0;entryPerimeter=0;" edge="1" parent="1" target="heOMLZ1UUDlmrcB64aW4-3">
          <mxGeometry relative="1" as="geometry">
            <mxPoint x="150" y="69" as="sourcePoint" />
            <mxPoint x="310" y="69" as="targetPoint" />
          </mxGeometry>
        </mxCell>
        <mxCell id="heOMLZ1UUDlmrcB64aW4-34" value="1" style="resizable=0;html=1;whiteSpace=wrap;align=right;verticalAlign=bottom;" connectable="0" vertex="1" parent="heOMLZ1UUDlmrcB64aW4-33">
          <mxGeometry x="1" relative="1" as="geometry" />
        </mxCell>
        <mxCell id="heOMLZ1UUDlmrcB64aW4-37" value="appointments" style="shape=ext;margin=3;double=1;whiteSpace=wrap;html=1;align=center;" vertex="1" parent="1">
          <mxGeometry x="580" y="260" width="100" height="40" as="geometry" />
        </mxCell>
        <mxCell id="heOMLZ1UUDlmrcB64aW4-42" value="" style="endArrow=none;html=1;rounded=0;entryX=0.32;entryY=0.075;entryDx=0;entryDy=0;entryPerimeter=0;" edge="1" parent="1" target="heOMLZ1UUDlmrcB64aW4-37">
          <mxGeometry relative="1" as="geometry">
            <mxPoint x="550" y="229" as="sourcePoint" />
            <mxPoint x="710" y="229" as="targetPoint" />
          </mxGeometry>
        </mxCell>
        <mxCell id="heOMLZ1UUDlmrcB64aW4-43" value="" style="endArrow=none;html=1;rounded=0;entryX=0.5;entryY=0;entryDx=0;entryDy=0;" edge="1" parent="1" target="heOMLZ1UUDlmrcB64aW4-37">
          <mxGeometry relative="1" as="geometry">
            <mxPoint x="610" y="180" as="sourcePoint" />
            <mxPoint x="770" y="180" as="targetPoint" />
          </mxGeometry>
        </mxCell>
        <mxCell id="heOMLZ1UUDlmrcB64aW4-44" value="" style="endArrow=none;html=1;rounded=0;entryX=0.75;entryY=0;entryDx=0;entryDy=0;" edge="1" parent="1" target="heOMLZ1UUDlmrcB64aW4-37">
          <mxGeometry relative="1" as="geometry">
            <mxPoint x="730" y="189" as="sourcePoint" />
            <mxPoint x="890" y="189" as="targetPoint" />
          </mxGeometry>
        </mxCell>
        <mxCell id="heOMLZ1UUDlmrcB64aW4-45" value="&lt;span style=&quot;border-bottom: 1px dotted&quot;&gt;modified at&lt;/span&gt;" style="ellipse;whiteSpace=wrap;html=1;align=center;" vertex="1" parent="1">
          <mxGeometry x="690" y="160" width="100" height="40" as="geometry" />
        </mxCell>
        <mxCell id="heOMLZ1UUDlmrcB64aW4-47" value="&lt;span style=&quot;border-bottom: 1px dotted&quot;&gt;created at&lt;/span&gt;" style="ellipse;whiteSpace=wrap;html=1;align=center;" vertex="1" parent="1">
          <mxGeometry x="100" y="30" width="100" height="40" as="geometry" />
        </mxCell>
        <mxCell id="heOMLZ1UUDlmrcB64aW4-48" value="" style="endArrow=none;html=1;rounded=0;exitX=0.5;exitY=0;exitDx=0;exitDy=0;" edge="1" parent="1" source="heOMLZ1UUDlmrcB64aW4-3">
          <mxGeometry relative="1" as="geometry">
            <mxPoint x="-150" y="60" as="sourcePoint" />
            <mxPoint x="10" y="60" as="targetPoint" />
          </mxGeometry>
        </mxCell>
        <mxCell id="heOMLZ1UUDlmrcB64aW4-49" value="&lt;span style=&quot;border-bottom: 1px dotted&quot;&gt;name&lt;/span&gt;" style="ellipse;whiteSpace=wrap;html=1;align=center;" vertex="1" parent="1">
          <mxGeometry x="-275" y="530" width="100" height="40" as="geometry" />
        </mxCell>
        <mxCell id="heOMLZ1UUDlmrcB64aW4-50" value="id" style="ellipse;whiteSpace=wrap;html=1;align=center;fontStyle=4;" vertex="1" parent="1">
          <mxGeometry x="-240" y="150" width="100" height="40" as="geometry" />
        </mxCell>
        <mxCell id="heOMLZ1UUDlmrcB64aW4-51" value="id" style="ellipse;whiteSpace=wrap;html=1;align=center;fontStyle=4;" vertex="1" parent="1">
          <mxGeometry x="-135" y="570" width="100" height="40" as="geometry" />
        </mxCell>
        <mxCell id="heOMLZ1UUDlmrcB64aW4-53" value="" style="endArrow=none;html=1;rounded=0;entryX=0;entryY=1;entryDx=0;entryDy=0;" edge="1" parent="1" target="heOMLZ1UUDlmrcB64aW4-4">
          <mxGeometry relative="1" as="geometry">
            <mxPoint x="-185" y="540" as="sourcePoint" />
            <mxPoint x="-25" y="540" as="targetPoint" />
          </mxGeometry>
        </mxCell>
        <mxCell id="heOMLZ1UUDlmrcB64aW4-54" value="" style="endArrow=none;html=1;rounded=0;entryX=0.6;entryY=1;entryDx=0;entryDy=0;entryPerimeter=0;" edge="1" parent="1" target="heOMLZ1UUDlmrcB64aW4-4">
          <mxGeometry relative="1" as="geometry">
            <mxPoint x="-75" y="570" as="sourcePoint" />
            <mxPoint x="85" y="570" as="targetPoint" />
          </mxGeometry>
        </mxCell>
        <mxCell id="heOMLZ1UUDlmrcB64aW4-55" value="room_number" style="ellipse;whiteSpace=wrap;html=1;align=center;" vertex="1" parent="1">
          <mxGeometry x="-35" y="630" width="100" height="40" as="geometry" />
        </mxCell>
        <mxCell id="heOMLZ1UUDlmrcB64aW4-56" value="" style="endArrow=none;html=1;rounded=0;entryX=0.25;entryY=1;entryDx=0;entryDy=0;" edge="1" parent="1" source="heOMLZ1UUDlmrcB64aW4-55" target="heOMLZ1UUDlmrcB64aW4-7">
          <mxGeometry relative="1" as="geometry">
            <mxPoint x="95" y="630" as="sourcePoint" />
            <mxPoint x="255" y="630" as="targetPoint" />
          </mxGeometry>
        </mxCell>
        <mxCell id="heOMLZ1UUDlmrcB64aW4-57" value="id" style="ellipse;whiteSpace=wrap;html=1;align=center;fontStyle=4;" vertex="1" parent="1">
          <mxGeometry x="65" y="640" width="100" height="40" as="geometry" />
        </mxCell>
        <mxCell id="heOMLZ1UUDlmrcB64aW4-58" value="" style="endArrow=none;html=1;rounded=0;entryX=0.36;entryY=-0.075;entryDx=0;entryDy=0;entryPerimeter=0;exitX=0.75;exitY=1;exitDx=0;exitDy=0;" edge="1" parent="1" source="heOMLZ1UUDlmrcB64aW4-7">
          <mxGeometry relative="1" as="geometry">
            <mxPoint x="175" y="609" as="sourcePoint" />
            <mxPoint x="111" y="637" as="targetPoint" />
          </mxGeometry>
        </mxCell>
        <mxCell id="heOMLZ1UUDlmrcB64aW4-59" value="&lt;span style=&quot;border-bottom: 1px dotted&quot;&gt;password&lt;/span&gt;" style="ellipse;whiteSpace=wrap;html=1;align=center;" vertex="1" parent="1">
          <mxGeometry x="480" y="605" width="100" height="40" as="geometry" />
        </mxCell>
        <mxCell id="heOMLZ1UUDlmrcB64aW4-60" value="&lt;span style=&quot;border-bottom: 1px dotted&quot;&gt;email&lt;/span&gt;" style="ellipse;whiteSpace=wrap;html=1;align=center;" vertex="1" parent="1">
          <mxGeometry x="566" y="645" width="100" height="40" as="geometry" />
        </mxCell>
        <mxCell id="heOMLZ1UUDlmrcB64aW4-61" value="&lt;span style=&quot;border-bottom: 1px dotted&quot;&gt;name&lt;/span&gt;" style="ellipse;whiteSpace=wrap;html=1;align=center;" vertex="1" parent="1">
          <mxGeometry x="740" y="575" width="100" height="40" as="geometry" />
        </mxCell>
        <mxCell id="heOMLZ1UUDlmrcB64aW4-65" value="phone" style="ellipse;whiteSpace=wrap;html=1;align=center;fontStyle=4;" vertex="1" parent="1">
          <mxGeometry x="716" y="485" width="100" height="40" as="geometry" />
        </mxCell>
        <mxCell id="heOMLZ1UUDlmrcB64aW4-66" value="" style="endArrow=none;html=1;rounded=0;entryX=0;entryY=1;entryDx=0;entryDy=0;" edge="1" parent="1" target="heOMLZ1UUDlmrcB64aW4-65">
          <mxGeometry relative="1" as="geometry">
            <mxPoint x="676" y="525" as="sourcePoint" />
            <mxPoint x="726" y="525.5" as="targetPoint" />
          </mxGeometry>
        </mxCell>
        <mxCell id="heOMLZ1UUDlmrcB64aW4-67" value="&lt;span style=&quot;border-bottom: 1px dotted&quot;&gt;modified at&lt;/span&gt;" style="ellipse;whiteSpace=wrap;html=1;align=center;" vertex="1" parent="1">
          <mxGeometry x="750" y="645" width="100" height="40" as="geometry" />
        </mxCell>
        <mxCell id="heOMLZ1UUDlmrcB64aW4-68" value="&lt;span style=&quot;border-bottom: 1px dotted&quot;&gt;created at&lt;/span&gt;" style="ellipse;whiteSpace=wrap;html=1;align=center;" vertex="1" parent="1">
          <mxGeometry x="696" y="695" width="100" height="40" as="geometry" />
        </mxCell>
        <mxCell id="heOMLZ1UUDlmrcB64aW4-70" value="" style="endArrow=none;html=1;rounded=0;entryX=0.5;entryY=0;entryDx=0;entryDy=0;exitX=0.25;exitY=1;exitDx=0;exitDy=0;" edge="1" parent="1" source="heOMLZ1UUDlmrcB64aW4-6" target="heOMLZ1UUDlmrcB64aW4-60">
          <mxGeometry relative="1" as="geometry">
            <mxPoint x="356" y="395" as="sourcePoint" />
            <mxPoint x="516" y="395" as="targetPoint" />
          </mxGeometry>
        </mxCell>
        <mxCell id="heOMLZ1UUDlmrcB64aW4-71" value="" style="endArrow=none;html=1;rounded=0;entryX=0.38;entryY=-0.1;entryDx=0;entryDy=0;entryPerimeter=0;exitX=0.35;exitY=1.025;exitDx=0;exitDy=0;exitPerimeter=0;" edge="1" parent="1" source="heOMLZ1UUDlmrcB64aW4-6" target="heOMLZ1UUDlmrcB64aW4-68">
          <mxGeometry relative="1" as="geometry">
            <mxPoint x="356" y="395" as="sourcePoint" />
            <mxPoint x="516" y="395" as="targetPoint" />
          </mxGeometry>
        </mxCell>
        <mxCell id="heOMLZ1UUDlmrcB64aW4-72" value="" style="endArrow=none;html=1;rounded=0;entryX=0.22;entryY=0.075;entryDx=0;entryDy=0;entryPerimeter=0;exitX=0.5;exitY=1;exitDx=0;exitDy=0;" edge="1" parent="1" source="heOMLZ1UUDlmrcB64aW4-6">
          <mxGeometry relative="1" as="geometry">
            <mxPoint x="356" y="395" as="sourcePoint" />
            <mxPoint x="778" y="648" as="targetPoint" />
          </mxGeometry>
        </mxCell>
        <mxCell id="heOMLZ1UUDlmrcB64aW4-73" value="" style="endArrow=none;html=1;rounded=0;entryX=0.32;entryY=-0.1;entryDx=0;entryDy=0;entryPerimeter=0;exitX=0.92;exitY=1.1;exitDx=0;exitDy=0;exitPerimeter=0;" edge="1" parent="1" source="heOMLZ1UUDlmrcB64aW4-6">
          <mxGeometry relative="1" as="geometry">
            <mxPoint x="356" y="395" as="sourcePoint" />
            <mxPoint x="778" y="571" as="targetPoint" />
          </mxGeometry>
        </mxCell>
        <mxCell id="heOMLZ1UUDlmrcB64aW4-75" value="" style="endArrow=none;html=1;rounded=0;entryX=0.44;entryY=0.05;entryDx=0;entryDy=0;entryPerimeter=0;exitX=0;exitY=1;exitDx=0;exitDy=0;" edge="1" parent="1" source="heOMLZ1UUDlmrcB64aW4-6">
          <mxGeometry relative="1" as="geometry">
            <mxPoint x="356" y="395" as="sourcePoint" />
            <mxPoint x="530" y="607" as="targetPoint" />
          </mxGeometry>
        </mxCell>
        <mxCell id="heOMLZ1UUDlmrcB64aW4-79" value="" style="edgeStyle=entityRelationEdgeStyle;fontSize=12;html=1;endArrow=ERzeroToMany;startArrow=ERmandOne;rounded=0;exitX=0.75;exitY=1;exitDx=0;exitDy=0;" edge="1" parent="1" source="heOMLZ1UUDlmrcB64aW4-3" target="heOMLZ1UUDlmrcB64aW4-78">
          <mxGeometry width="100" height="100" relative="1" as="geometry">
            <mxPoint x="215" y="300" as="sourcePoint" />
            <mxPoint x="300" y="480" as="targetPoint" />
          </mxGeometry>
        </mxCell>
        <mxCell id="heOMLZ1UUDlmrcB64aW4-78" value="work in" style="shape=rhombus;double=1;perimeter=rhombusPerimeter;whiteSpace=wrap;html=1;align=center;" vertex="1" parent="1">
          <mxGeometry x="25" y="350" width="120" height="60" as="geometry" />
        </mxCell>
        <mxCell id="heOMLZ1UUDlmrcB64aW4-80" value="" style="edgeStyle=entityRelationEdgeStyle;fontSize=12;html=1;endArrow=ERmandOne;startArrow=ERmandOne;rounded=0;entryX=0;entryY=0.75;entryDx=0;entryDy=0;" edge="1" parent="1" target="heOMLZ1UUDlmrcB64aW4-3">
          <mxGeometry width="100" height="100" relative="1" as="geometry">
            <mxPoint x="-160" y="460" as="sourcePoint" />
            <mxPoint x="-60" y="360" as="targetPoint" />
          </mxGeometry>
        </mxCell>
        <mxCell id="heOMLZ1UUDlmrcB64aW4-81" value="" style="edgeStyle=entityRelationEdgeStyle;fontSize=12;html=1;endArrow=ERone;endFill=1;rounded=0;entryX=0.592;entryY=0.933;entryDx=0;entryDy=0;entryPerimeter=0;" edge="1" parent="1" target="heOMLZ1UUDlmrcB64aW4-78">
          <mxGeometry width="100" height="100" relative="1" as="geometry">
            <mxPoint x="40" y="530" as="sourcePoint" />
            <mxPoint x="140" y="430" as="targetPoint" />
          </mxGeometry>
        </mxCell>
        <mxCell id="heOMLZ1UUDlmrcB64aW4-82" value="have" style="shape=rhombus;double=1;perimeter=rhombusPerimeter;whiteSpace=wrap;html=1;align=center;" vertex="1" parent="1">
          <mxGeometry x="-185" y="340" width="120" height="60" as="geometry" />
        </mxCell>
        <mxCell id="heOMLZ1UUDlmrcB64aW4-85" value="" style="edgeStyle=entityRelationEdgeStyle;fontSize=12;html=1;endArrow=ERzeroToMany;startArrow=ERmandOne;rounded=0;exitX=0.5;exitY=1;exitDx=0;exitDy=0;entryX=0.5;entryY=0;entryDx=0;entryDy=0;" edge="1" parent="1" source="heOMLZ1UUDlmrcB64aW4-83" target="heOMLZ1UUDlmrcB64aW4-6">
          <mxGeometry width="100" height="100" relative="1" as="geometry">
            <mxPoint x="370" y="460" as="sourcePoint" />
            <mxPoint x="470" y="360" as="targetPoint" />
          </mxGeometry>
        </mxCell>
        <mxCell id="heOMLZ1UUDlmrcB64aW4-86" value="" style="edgeStyle=entityRelationEdgeStyle;fontSize=12;html=1;endArrow=ERzeroToMany;startArrow=ERmandOne;rounded=0;exitX=0.5;exitY=1;exitDx=0;exitDy=0;entryX=0.5;entryY=0;entryDx=0;entryDy=0;" edge="1" parent="1" source="heOMLZ1UUDlmrcB64aW4-37" target="heOMLZ1UUDlmrcB64aW4-83">
          <mxGeometry width="100" height="100" relative="1" as="geometry">
            <mxPoint x="630" y="300" as="sourcePoint" />
            <mxPoint x="626" y="515" as="targetPoint" />
          </mxGeometry>
        </mxCell>
        <mxCell id="heOMLZ1UUDlmrcB64aW4-83" value="make" style="shape=rhombus;double=1;perimeter=rhombusPerimeter;whiteSpace=wrap;html=1;align=center;" vertex="1" parent="1">
          <mxGeometry x="540" y="380" width="120" height="60" as="geometry" />
        </mxCell>
        <mxCell id="heOMLZ1UUDlmrcB64aW4-87" value="" style="edgeStyle=entityRelationEdgeStyle;fontSize=12;html=1;endArrow=ERzeroToMany;startArrow=ERzeroToOne;rounded=0;entryX=0;entryY=0.5;entryDx=0;entryDy=0;" edge="1" parent="1" target="heOMLZ1UUDlmrcB64aW4-37">
          <mxGeometry width="100" height="100" relative="1" as="geometry">
            <mxPoint x="-10" y="240" as="sourcePoint" />
            <mxPoint x="90" y="140" as="targetPoint" />
          </mxGeometry>
        </mxCell>
        <mxCell id="heOMLZ1UUDlmrcB64aW4-88" value="reserved for" style="shape=rhombus;double=1;perimeter=rhombusPerimeter;whiteSpace=wrap;html=1;align=center;" vertex="1" parent="1">
          <mxGeometry x="240" y="230" width="120" height="60" as="geometry" />
        </mxCell>
      </root>
    </mxGraphModel>
  </diagram>
</mxfile>
